<?xml version="1.0" encoding="UTF-8" standalone="no"?>
<!-- Created with Inkscape (http://www.inkscape.org/) -->

<svg
   xmlns:dc="http://purl.org/dc/elements/1.1/"
   xmlns:cc="http://creativecommons.org/ns#"
   xmlns:rdf="http://www.w3.org/1999/02/22-rdf-syntax-ns#"
   xmlns:svg="http://www.w3.org/2000/svg"
   xmlns="http://www.w3.org/2000/svg"
   xmlns:sodipodi="http://sodipodi.sourceforge.net/DTD/sodipodi-0.dtd"
   xmlns:inkscape="http://www.inkscape.org/namespaces/inkscape"
   width="31.977646mm"
   height="44.453709mm"
   viewBox="0 0 31.977646 44.453709"
   version="1.1"
   id="svg4750"
   inkscape:version="0.92.5 (2060ec1f9f, 2020-04-08)"
   sodipodi:docname="ir-clone.svg">
  <defs
     id="defs4744" />
  <sodipodi:namedview
     id="base"
     pagecolor="#ffffff"
     bordercolor="#666666"
     borderopacity="1.0"
     inkscape:pageopacity="0.0"
     inkscape:pageshadow="2"
     inkscape:zoom="3.3178776"
     inkscape:cx="25.532254"
     inkscape:cy="114.09675"
     inkscape:document-units="mm"
     inkscape:current-layer="layer1"
     showgrid="false"
     inkscape:snap-global="false"
     inkscape:window-width="1848"
     inkscape:window-height="1016"
     inkscape:window-x="72"
     inkscape:window-y="27"
     inkscape:window-maximized="1"
     fit-margin-top="0"
     fit-margin-left="0"
     fit-margin-right="0"
     fit-margin-bottom="0" />
  <metadata
     id="metadata4747">
    <rdf:RDF>
      <cc:Work
         rdf:about="">
        <dc:format>image/svg+xml</dc:format>
        <dc:type
           rdf:resource="http://purl.org/dc/dcmitype/StillImage" />
        <dc:title></dc:title>
      </cc:Work>
    </rdf:RDF>
  </metadata>
  <g
     inkscape:label="Layer 1"
     inkscape:groupmode="layer"
     id="layer1"
     transform="translate(-58.293415,-99.994583)">
    <rect
       style="opacity:1;fill:#008000;fill-opacity:1;stroke:none;stroke-width:0.93294942;stroke-linejoin:round;stroke-miterlimit:4;stroke-dasharray:none;stroke-dashoffset:0;stroke-opacity:1"
       id="rect6266"
       width="31.977646"
       height="41.307781"
       x="58.293415"
       y="103.14051"
       ry="2.7751145" />
    <g
       style="fill:#000000;fill-opacity:0;stroke:#000000;stroke-width:150000;stroke-linecap:round;stroke-linejoin:round;stroke-opacity:1"
       id="g4174"
       transform="matrix(9.9999996e-7,0,0,9.9999996e-7,-64.159379,27.494767)" />
    <g
       id="g4176"
       style="fill:#000000;fill-opacity:0;stroke:#000000;stroke-width:1;stroke-linecap:round;stroke-linejoin:round;stroke-opacity:1"
       transform="matrix(9.9999996e-7,0,0,9.9999996e-7,-64.159379,27.494767)" />
    <g
       id="g4184"
       style="fill:#000000;fill-opacity:1;stroke:#000000;stroke-width:21200;stroke-linecap:round;stroke-linejoin:round;stroke-opacity:1"
       transform="matrix(9.9999996e-7,0,0,9.9999996e-7,-64.159379,27.494767)" />
    <g
       style="fill:#000000;fill-opacity:0;stroke:#000000;stroke-width:150000;stroke-linecap:round;stroke-linejoin:round;stroke-opacity:1"
       id="g4186"
       transform="matrix(9.9999996e-7,0,0,9.9999996e-7,-64.159379,27.494767)" />
    <g
       id="g4188"
       style="fill:#000000;fill-opacity:1;stroke:#000000;stroke-width:21200;stroke-linecap:round;stroke-linejoin:round;stroke-opacity:1"
       transform="matrix(9.9999996e-7,0,0,9.9999996e-7,-64.159379,27.494767)" />
    <g
       id="g4196"
       style="fill:#000000;fill-opacity:1;stroke:#000000;stroke-width:21200;stroke-linecap:round;stroke-linejoin:round;stroke-opacity:1"
       transform="matrix(9.9999996e-7,0,0,9.9999996e-7,-64.159379,27.494767)" />
    <g
       style="fill:#000000;fill-opacity:0;stroke:#000000;stroke-width:150000;stroke-linecap:round;stroke-linejoin:round;stroke-opacity:1"
       id="g4198"
       transform="matrix(9.9999996e-7,0,0,9.9999996e-7,-64.159379,27.494767)" />
    <g
       id="g4200"
       style="fill:#000000;fill-opacity:1;stroke:#000000;stroke-width:21200;stroke-linecap:round;stroke-linejoin:round;stroke-opacity:1"
       transform="matrix(9.9999996e-7,0,0,9.9999996e-7,-64.159379,27.494767)" />
    <g
       id="g4208"
       style="fill:#000000;fill-opacity:1;stroke:#000000;stroke-width:21200;stroke-linecap:round;stroke-linejoin:round;stroke-opacity:1"
       transform="matrix(9.9999996e-7,0,0,9.9999996e-7,-64.159379,27.494767)" />
    <g
       style="fill:#000000;fill-opacity:0;stroke:#000000;stroke-width:150000;stroke-linecap:round;stroke-linejoin:round;stroke-opacity:1"
       id="g4210"
       transform="matrix(9.9999996e-7,0,0,9.9999996e-7,-64.159379,27.494767)" />
    <g
       id="g4212"
       style="fill:#000000;fill-opacity:1;stroke:#000000;stroke-width:21200;stroke-linecap:round;stroke-linejoin:round;stroke-opacity:1"
       transform="matrix(9.9999996e-7,0,0,9.9999996e-7,-64.159379,27.494767)" />
    <g
       id="g4218"
       style="fill:#000000;fill-opacity:1;stroke:#000000;stroke-width:1;stroke-linecap:round;stroke-linejoin:round;stroke-opacity:1"
       transform="matrix(9.9999996e-7,0,0,9.9999996e-7,-64.159379,27.494767)">
      <path
         id="path4214"
         d="m 147180000,79860001 v 1799998 h -1800000 v -1799998 z"
         style="fill:#000000;fill-opacity:1;fill-rule:evenodd;stroke:#000000;stroke-width:1;stroke-linecap:round;stroke-linejoin:round;stroke-opacity:1"
         inkscape:connector-curvature="0" />
      <circle
         id="circle4216"
         r="900000"
         cy="80760000"
         cx="143740000" />
    </g>
    <g
       id="g4220"
       style="fill:#000000;fill-opacity:1;stroke:#000000;stroke-width:21200;stroke-linecap:round;stroke-linejoin:round;stroke-opacity:1"
       transform="matrix(9.9999996e-7,0,0,9.9999996e-7,-64.159379,27.494767)" />
    <g
       style="fill:#000000;fill-opacity:0;stroke:#000000;stroke-width:150000;stroke-linecap:round;stroke-linejoin:round;stroke-opacity:1"
       id="g4222"
       transform="matrix(9.9999996e-7,0,0,9.9999996e-7,-64.159379,27.494767)" />
    <g
       id="g4224"
       style="fill:#000000;fill-opacity:1;stroke:#000000;stroke-width:21200;stroke-linecap:round;stroke-linejoin:round;stroke-opacity:1"
       transform="matrix(9.9999996e-7,0,0,9.9999996e-7,-64.159379,27.494767)" />
    <g
       id="g4232"
       style="fill:#000000;fill-opacity:1;stroke:#000000;stroke-width:21200;stroke-linecap:round;stroke-linejoin:round;stroke-opacity:1"
       transform="matrix(9.9999996e-7,0,0,9.9999996e-7,-64.159379,27.494767)" />
    <g
       style="fill:#000000;fill-opacity:0;stroke:#000000;stroke-width:150000;stroke-linecap:round;stroke-linejoin:round;stroke-opacity:1"
       id="g4234"
       transform="matrix(9.9999996e-7,0,0,9.9999996e-7,-64.159379,27.494767)" />
    <g
       id="g4236"
       style="fill:#000000;fill-opacity:1;stroke:#000000;stroke-width:21200;stroke-linecap:round;stroke-linejoin:round;stroke-opacity:1"
       transform="matrix(9.9999996e-7,0,0,9.9999996e-7,-64.159379,27.494767)" />
    <g
       id="g4240"
       style="fill:#000000;fill-opacity:1;stroke:#000000;stroke-width:1;stroke-linecap:round;stroke-linejoin:round;stroke-opacity:1"
       transform="matrix(9.9999996e-7,0,0,9.9999996e-7,-64.159379,27.494767)">
      <circle
         id="circle4238"
         r="3200000"
         cy="109500000"
         cx="127120000" />
    </g>
    <g
       id="g4242"
       style="fill:#000000;fill-opacity:1;stroke:#000000;stroke-width:21200;stroke-linecap:round;stroke-linejoin:round;stroke-opacity:1"
       transform="matrix(9.9999996e-7,0,0,9.9999996e-7,-64.159379,27.494767)" />
    <g
       style="fill:#000000;fill-opacity:0;stroke:#000000;stroke-width:150000;stroke-linecap:round;stroke-linejoin:round;stroke-opacity:1"
       id="g4244"
       transform="matrix(9.9999996e-7,0,0,9.9999996e-7,-64.159379,27.494767)" />
    <g
       id="g4246"
       style="fill:#000000;fill-opacity:1;stroke:#000000;stroke-width:21200;stroke-linecap:round;stroke-linejoin:round;stroke-opacity:1"
       transform="matrix(9.9999996e-7,0,0,9.9999996e-7,-64.159379,27.494767)" />
    <g
       id="g4250"
       style="fill:#000000;fill-opacity:1;stroke:#000000;stroke-width:1;stroke-linecap:round;stroke-linejoin:round;stroke-opacity:1"
       transform="matrix(9.9999996e-7,0,0,9.9999996e-7,-64.159379,27.494767)">
      <circle
         id="circle4248"
         r="3200000"
         cy="79780000"
         cx="137660000" />
    </g>
    <g
       id="g4252"
       style="fill:#000000;fill-opacity:1;stroke:#000000;stroke-width:21200;stroke-linecap:round;stroke-linejoin:round;stroke-opacity:1"
       transform="matrix(9.9999996e-7,0,0,9.9999996e-7,-64.159379,27.494767)" />
    <g
       style="fill:#000000;fill-opacity:0;stroke:#000000;stroke-width:150000;stroke-linecap:round;stroke-linejoin:round;stroke-opacity:1"
       id="g4254"
       transform="matrix(9.9999996e-7,0,0,9.9999996e-7,-64.159379,27.494767)" />
    <g
       id="g4256"
       style="fill:#000000;fill-opacity:1;stroke:#000000;stroke-width:21200;stroke-linecap:round;stroke-linejoin:round;stroke-opacity:1"
       transform="matrix(9.9999996e-7,0,0,9.9999996e-7,-64.159379,27.494767)" />
    <g
       id="g4260"
       style="fill:#000000;fill-opacity:1;stroke:#000000;stroke-width:1;stroke-linecap:round;stroke-linejoin:round;stroke-opacity:1"
       transform="matrix(9.9999996e-7,0,0,9.9999996e-7,-64.159379,27.494767)">
      <path
         id="path4258"
         d="m 153020000,113830000 -19030,95670 -54190,81110 -81110,54190 -95670,19030 h -1300000 l -95670,-19030 -81110,-54190 -54190,-81110 -19030,-95670 v -3100000 l 19030,-95670 54190,-81110 81110,-54190 95670,-19030 h 1300000 l 95670,19030 81110,54190 54190,81110 19030,95670 z"
         style="fill:#000000;fill-opacity:1;fill-rule:evenodd;stroke:#000000;stroke-width:1;stroke-linecap:round;stroke-linejoin:round;stroke-opacity:1"
         inkscape:connector-curvature="0" />
    </g>
    <g
       id="g4262"
       style="fill:#000000;fill-opacity:1;stroke:#000000;stroke-width:1800000;stroke-linecap:round;stroke-linejoin:round;stroke-opacity:1"
       transform="matrix(9.9999996e-7,0,0,9.9999996e-7,-64.159379,27.494767)" />
    <g
       id="g4266"
       style="fill:#000000;fill-opacity:0;stroke:#000000;stroke-width:1800000;stroke-linecap:round;stroke-linejoin:round;stroke-opacity:1"
       transform="matrix(9.9999996e-7,0,0,9.9999996e-7,-64.159379,27.494767)">
      <path
         id="path4264"
         d="m 148620000,113180000 v -1800000"
         inkscape:connector-curvature="0" />
    </g>
    <g
       style="fill:#000000;fill-opacity:0;stroke:#000000;stroke-width:150000;stroke-linecap:round;stroke-linejoin:round;stroke-opacity:1"
       id="g4268"
       transform="matrix(9.9999996e-7,0,0,9.9999996e-7,-64.159379,27.494767)" />
    <g
       id="g4270"
       style="fill:#000000;fill-opacity:0;stroke:#000000;stroke-width:1800000;stroke-linecap:round;stroke-linejoin:round;stroke-opacity:1"
       transform="matrix(9.9999996e-7,0,0,9.9999996e-7,-64.159379,27.494767)" />
    <g
       id="g4272"
       style="fill:#000000;fill-opacity:0;stroke:#000000;stroke-width:1;stroke-linecap:round;stroke-linejoin:round;stroke-opacity:1"
       transform="matrix(9.9999996e-7,0,0,9.9999996e-7,-64.159379,27.494767)" />
    <g
       id="g4278"
       style="fill:#000000;fill-opacity:1;stroke:#000000;stroke-width:1;stroke-linecap:round;stroke-linejoin:round;stroke-opacity:1"
       transform="matrix(9.9999996e-7,0,0,9.9999996e-7,-64.159379,27.494767)">
      <path
         id="path4274"
         d="m 149350000,81219999 v -1699998 h 1700000 v 1699998 z"
         style="fill:#000000;fill-opacity:1;fill-rule:evenodd;stroke:#000000;stroke-width:1;stroke-linecap:round;stroke-linejoin:round;stroke-opacity:1"
         inkscape:connector-curvature="0" />
      <circle
         id="circle4276"
         r="850000"
         cy="82910000"
         cx="150200000" />
    </g>
    <g
       style="fill:#000000;fill-opacity:0;stroke:#000000;stroke-width:150000;stroke-linecap:round;stroke-linejoin:round;stroke-opacity:1"
       id="g4280"
       transform="matrix(9.9999996e-7,0,0,9.9999996e-7,-64.159379,27.494767)" />
    <g
       id="g4288"
       style="fill:#000000;fill-opacity:1;stroke:#000000;stroke-width:21200;stroke-linecap:round;stroke-linejoin:round;stroke-opacity:1"
       transform="matrix(9.9999996e-7,0,0,9.9999996e-7,-64.159379,27.494767)" />
    <g
       id="g4294"
       style="fill:#000000;fill-opacity:1;stroke:#000000;stroke-width:21200;stroke-linecap:round;stroke-linejoin:round;stroke-opacity:1"
       transform="matrix(9.9999996e-7,0,0,9.9999996e-7,-64.159379,27.494767)" />
    <g
       id="g4300"
       style="fill:#000000;fill-opacity:1;stroke:#000000;stroke-width:21200;stroke-linecap:round;stroke-linejoin:round;stroke-opacity:1"
       transform="matrix(9.9999996e-7,0,0,9.9999996e-7,-64.159379,27.494767)" />
    <g
       style="fill:#000000;fill-opacity:0;stroke:#000000;stroke-width:150000;stroke-linecap:round;stroke-linejoin:round;stroke-opacity:1"
       id="g4302"
       transform="matrix(9.9999996e-7,0,0,9.9999996e-7,-64.159379,27.494767)" />
    <g
       id="g4304"
       style="fill:#000000;fill-opacity:1;stroke:#000000;stroke-width:21200;stroke-linecap:round;stroke-linejoin:round;stroke-opacity:1"
       transform="matrix(9.9999996e-7,0,0,9.9999996e-7,-64.159379,27.494767)" />
    <g
       id="g4312"
       style="fill:#000000;fill-opacity:1;stroke:#000000;stroke-width:1;stroke-linecap:round;stroke-linejoin:round;stroke-opacity:1"
       transform="matrix(9.9999996e-7,0,0,9.9999996e-7,-64.159379,27.494767)">
      <path
         id="path4306"
         d="m 150940000,91010001 v 1699998 h -1700000 v -1699998 z"
         style="fill:#000000;fill-opacity:1;fill-rule:evenodd;stroke:#000000;stroke-width:1;stroke-linecap:round;stroke-linejoin:round;stroke-opacity:1"
         inkscape:connector-curvature="0" />
      <circle
         id="circle4308"
         r="850000"
         cy="89320000"
         cx="150090000" />
      <circle
         id="circle4310"
         r="850000"
         cy="86780000"
         cx="150090000" />
    </g>
    <g
       style="fill:#000000;fill-opacity:0;stroke:#000000;stroke-width:150000;stroke-linecap:round;stroke-linejoin:round;stroke-opacity:1"
       id="g4314"
       transform="matrix(9.9999996e-7,0,0,9.9999996e-7,-64.159379,27.494767)" />
    <g
       id="g4320"
       style="fill:#000000;fill-opacity:1;stroke:#000000;stroke-width:21200;stroke-linecap:round;stroke-linejoin:round;stroke-opacity:1"
       transform="matrix(9.9999996e-7,0,0,9.9999996e-7,-64.159379,27.494767)" />
    <g
       style="fill:#000000;fill-opacity:0;stroke:#000000;stroke-width:150000;stroke-linecap:round;stroke-linejoin:round;stroke-opacity:1"
       id="g4326"
       transform="matrix(9.9999996e-7,0,0,9.9999996e-7,-64.159379,27.494767)" />
    <g
       style="fill:#000000;fill-opacity:0;stroke:#000000;stroke-width:150000;stroke-linecap:round;stroke-linejoin:round;stroke-opacity:1"
       id="g4346"
       transform="matrix(9.9999996e-7,0,0,9.9999996e-7,-64.159379,27.494767)" />
    <g
       id="g4350"
       style="fill:#000000;fill-opacity:1;stroke:#000000;stroke-width:1;stroke-linecap:round;stroke-linejoin:round;stroke-opacity:1"
       transform="matrix(9.9999996e-7,0,0,9.9999996e-7,-64.159379,27.494767)">
      <circle
         id="circle4348"
         r="1000000"
         cy="98880000"
         cx="129580000" />
    </g>
    <g
       id="g4352"
       style="fill:#000000;fill-opacity:1;stroke:#000000;stroke-width:21200;stroke-linecap:round;stroke-linejoin:round;stroke-opacity:1"
       transform="matrix(9.9999996e-7,0,0,9.9999996e-7,-64.159379,27.494767)" />
    <g
       id="g4356"
       style="fill:#000000;fill-opacity:1;stroke:#000000;stroke-width:1;stroke-linecap:round;stroke-linejoin:round;stroke-opacity:1"
       transform="matrix(9.9999996e-7,0,0,9.9999996e-7,-64.159379,27.494767)">
      <circle
         id="circle4354"
         r="1000000"
         cy="98880000"
         cx="125080000" />
    </g>
    <g
       id="g4358"
       style="fill:#000000;fill-opacity:1;stroke:#000000;stroke-width:21200;stroke-linecap:round;stroke-linejoin:round;stroke-opacity:1"
       transform="matrix(9.9999996e-7,0,0,9.9999996e-7,-64.159379,27.494767)" />
    <g
       id="g4362"
       style="fill:#000000;fill-opacity:1;stroke:#000000;stroke-width:1;stroke-linecap:round;stroke-linejoin:round;stroke-opacity:1"
       transform="matrix(9.9999996e-7,0,0,9.9999996e-7,-64.159379,27.494767)">
      <circle
         id="circle4360"
         r="1000000"
         cy="92380000"
         cx="125080000" />
    </g>
    <g
       id="g4364"
       style="fill:#000000;fill-opacity:1;stroke:#000000;stroke-width:21200;stroke-linecap:round;stroke-linejoin:round;stroke-opacity:1"
       transform="matrix(9.9999996e-7,0,0,9.9999996e-7,-64.159379,27.494767)" />
    <g
       id="g4368"
       style="fill:#000000;fill-opacity:1;stroke:#000000;stroke-width:1;stroke-linecap:round;stroke-linejoin:round;stroke-opacity:1"
       transform="matrix(9.9999996e-7,0,0,9.9999996e-7,-64.159379,27.494767)">
      <circle
         id="circle4366"
         r="1000000"
         cy="92380000"
         cx="129580000" />
    </g>
    <g
       id="g4370"
       style="fill:#000000;fill-opacity:1;stroke:#000000;stroke-width:21200;stroke-linecap:round;stroke-linejoin:round;stroke-opacity:1"
       transform="matrix(9.9999996e-7,0,0,9.9999996e-7,-64.159379,27.494767)" />
    <g
       style="fill:#000000;fill-opacity:0;stroke:#000000;stroke-width:150000;stroke-linecap:round;stroke-linejoin:round;stroke-opacity:1"
       id="g4372"
       transform="matrix(9.9999996e-7,0,0,9.9999996e-7,-64.159379,27.494767)" />
    <g
       id="g4374"
       style="fill:#000000;fill-opacity:1;stroke:#000000;stroke-width:21200;stroke-linecap:round;stroke-linejoin:round;stroke-opacity:1"
       transform="matrix(9.9999996e-7,0,0,9.9999996e-7,-64.159379,27.494767)" />
    <g
       id="g4380"
       style="fill:#000000;fill-opacity:1;stroke:#000000;stroke-width:21200;stroke-linecap:round;stroke-linejoin:round;stroke-opacity:1"
       transform="matrix(9.9999996e-7,0,0,9.9999996e-7,-64.159379,27.494767)" />
    <g
       style="fill:#000000;fill-opacity:0;stroke:#000000;stroke-width:150000;stroke-linecap:round;stroke-linejoin:round;stroke-opacity:1"
       id="g4382"
       transform="matrix(9.9999996e-7,0,0,9.9999996e-7,-64.159379,27.494767)" />
    <g
       id="g4384"
       style="fill:#000000;fill-opacity:1;stroke:#000000;stroke-width:21200;stroke-linecap:round;stroke-linejoin:round;stroke-opacity:1"
       transform="matrix(9.9999996e-7,0,0,9.9999996e-7,-64.159379,27.494767)" />
    <g
       id="g4390"
       style="fill:#000000;fill-opacity:1;stroke:#000000;stroke-width:21200;stroke-linecap:round;stroke-linejoin:round;stroke-opacity:1"
       transform="matrix(9.9999996e-7,0,0,9.9999996e-7,-64.159379,27.494767)" />
    <g
       style="fill:#000000;fill-opacity:0;stroke:#000000;stroke-width:150000;stroke-linecap:round;stroke-linejoin:round;stroke-opacity:1"
       id="g4392"
       transform="matrix(9.9999996e-7,0,0,9.9999996e-7,-64.159379,27.494767)" />
    <g
       id="g4394"
       style="fill:#000000;fill-opacity:1;stroke:#000000;stroke-width:21200;stroke-linecap:round;stroke-linejoin:round;stroke-opacity:1"
       transform="matrix(9.9999996e-7,0,0,9.9999996e-7,-64.159379,27.494767)" />
    <g
       style="fill:#000000;fill-opacity:0;stroke:#000000;stroke-width:150000;stroke-linecap:round;stroke-linejoin:round;stroke-opacity:1"
       id="g4406"
       transform="matrix(9.9999996e-7,0,0,9.9999996e-7,-64.159379,27.494767)" />
    <g
       style="fill:#000000;fill-opacity:0;stroke:#000000;stroke-width:150000;stroke-linecap:round;stroke-linejoin:round;stroke-opacity:1"
       id="g4450"
       transform="matrix(9.9999996e-7,0,0,9.9999996e-7,-64.159379,27.494767)" />
    <g
       id="g4456"
       style="fill:#000000;fill-opacity:1;stroke:#000000;stroke-width:1600000;stroke-linecap:round;stroke-linejoin:round;stroke-opacity:1"
       transform="matrix(9.9999996e-7,0,0,9.9999996e-7,-64.159379,27.494767)" />
    <g
       style="fill:#000000;fill-opacity:0;stroke:#000000;stroke-width:150000;stroke-linecap:round;stroke-linejoin:round;stroke-opacity:1"
       id="g4474"
       transform="matrix(9.9999996e-7,0,0,9.9999996e-7,-64.159379,27.494767)" />
    <g
       id="g4476"
       style="fill:#000000;fill-opacity:0;stroke:#000000;stroke-width:1600000;stroke-linecap:round;stroke-linejoin:round;stroke-opacity:1"
       transform="matrix(9.9999996e-7,0,0,9.9999996e-7,-64.159379,27.494767)" />
    <g
       id="g4478"
       style="fill:#000000;fill-opacity:0;stroke:#000000;stroke-width:1;stroke-linecap:round;stroke-linejoin:round;stroke-opacity:1"
       transform="matrix(9.9999996e-7,0,0,9.9999996e-7,-64.159379,27.494767)" />
    <g
       id="g4484"
       style="fill:#000000;fill-opacity:1;stroke:#000000;stroke-width:1;stroke-linecap:round;stroke-linejoin:round;stroke-opacity:1"
       transform="matrix(9.9999996e-7,0,0,9.9999996e-7,-64.159379,27.494767)">
      <path
         id="path4480"
         d="m 133420000,82491600 -18910,95059 -53840,80586 -80590,53847 -95060,18908 h -1303200 l -95060,-18908 -80580,-53847 -53850,-80586 -18910,-95059 v -1303200 l 18910,-95059 53850,-80586 80580,-53847 95060,-18908 h 1303200 l 95060,18908 80590,53847 53840,80586 18910,95059 z"
         style="fill:#000000;fill-opacity:1;fill-rule:evenodd;stroke:#000000;stroke-width:1;stroke-linecap:round;stroke-linejoin:round;stroke-opacity:1"
         inkscape:connector-curvature="0" />
      <circle
         id="circle4482"
         r="900000"
         cy="81840000"
         cx="129980000" />
    </g>
    <g
       id="g4486"
       style="fill:#000000;fill-opacity:1;stroke:#000000;stroke-width:21200;stroke-linecap:round;stroke-linejoin:round;stroke-opacity:1"
       transform="matrix(9.9999996e-7,0,0,9.9999996e-7,-64.159379,27.494767)" />
    <g
       id="g4490"
       style="fill:#000000;fill-opacity:1;stroke:#000000;stroke-width:1;stroke-linecap:round;stroke-linejoin:round;stroke-opacity:1"
       transform="matrix(9.9999996e-7,0,0,9.9999996e-7,-64.159379,27.494767)">
      <circle
         id="circle4488"
         r="900000"
         cy="81840000"
         cx="127440000" />
    </g>
    <g
       id="g4492"
       style="fill:#000000;fill-opacity:1;stroke:#000000;stroke-width:21200;stroke-linecap:round;stroke-linejoin:round;stroke-opacity:1"
       transform="matrix(9.9999996e-7,0,0,9.9999996e-7,-64.159379,27.494767)" />
    <g
       style="fill:#000000;fill-opacity:0;stroke:#000000;stroke-width:150000;stroke-linecap:round;stroke-linejoin:round;stroke-opacity:1"
       id="g4494"
       transform="matrix(9.9999996e-7,0,0,9.9999996e-7,-64.159379,27.494767)" />
    <g
       id="g4496"
       style="fill:#000000;fill-opacity:1;stroke:#000000;stroke-width:21200;stroke-linecap:round;stroke-linejoin:round;stroke-opacity:1"
       transform="matrix(9.9999996e-7,0,0,9.9999996e-7,-64.159379,27.494767)" />
    <path
       inkscape:connector-curvature="0"
       style="fill:#000000;fill-opacity:1;fill-rule:evenodd;stroke:#000000;stroke-width:0.000001;stroke-linecap:round;stroke-linejoin:round;stroke-opacity:1"
       d="m 62.670616,143.56476 h -1.7 v -1.7 h 1.7 z"
       id="path4498" />
    <circle
       style="fill:#000000;fill-opacity:1;stroke:#000000;stroke-width:0.000001;stroke-linecap:round;stroke-linejoin:round;stroke-opacity:1"
       cx="64.360619"
       cy="142.71477"
       r="0.84999996"
       id="circle4500" />
    <circle
       style="fill:#000000;fill-opacity:1;stroke:#000000;stroke-width:0.000001;stroke-linecap:round;stroke-linejoin:round;stroke-opacity:1"
       cx="66.90062"
       cy="142.71477"
       r="0.84999996"
       id="circle4502" />
    <circle
       style="fill:#000000;fill-opacity:1;stroke:#000000;stroke-width:0.000001;stroke-linecap:round;stroke-linejoin:round;stroke-opacity:1"
       cx="69.440613"
       cy="142.71477"
       r="0.84999996"
       id="circle4504" />
    <circle
       style="fill:#000000;fill-opacity:1;stroke:#000000;stroke-width:0.000001;stroke-linecap:round;stroke-linejoin:round;stroke-opacity:1"
       cx="71.980614"
       cy="142.71477"
       r="0.84999996"
       id="circle4506" />
    <circle
       style="fill:#000000;fill-opacity:1;stroke:#000000;stroke-width:0.000001;stroke-linecap:round;stroke-linejoin:round;stroke-opacity:1"
       cx="74.520615"
       cy="142.71477"
       r="0.84999996"
       id="circle4508" />
    <circle
       style="fill:#000000;fill-opacity:1;stroke:#000000;stroke-width:0.000001;stroke-linecap:round;stroke-linejoin:round;stroke-opacity:1"
       cx="77.060616"
       cy="142.71477"
       r="0.84999996"
       id="circle4510" />
    <circle
       style="fill:#000000;fill-opacity:1;stroke:#000000;stroke-width:0.000001;stroke-linecap:round;stroke-linejoin:round;stroke-opacity:1"
       cx="79.600616"
       cy="142.71477"
       r="0.84999996"
       id="circle4512" />
    <g
       style="fill:#000000;fill-opacity:0;stroke:#000000;stroke-width:150000;stroke-linecap:round;stroke-linejoin:round;stroke-opacity:1"
       id="g4516"
       transform="matrix(9.9999996e-7,0,0,9.9999996e-7,-64.159379,27.494767)" />
    <g
       id="g4522"
       style="fill:#000000;fill-opacity:1;stroke:#000000;stroke-width:1;stroke-linecap:round;stroke-linejoin:round;stroke-opacity:1"
       transform="matrix(9.9999996e-7,0,0,9.9999996e-7,-64.159379,27.494767)">
      <path
         id="path4518"
         d="m 128380000,87430001 h 1700000 v 1699998 h -1700000 z"
         style="fill:#000000;fill-opacity:1;fill-rule:evenodd;stroke:#000000;stroke-width:1;stroke-linecap:round;stroke-linejoin:round;stroke-opacity:1"
         inkscape:connector-curvature="0" />
      <circle
         id="circle4520"
         r="850000"
         cy="88280000"
         cx="126690000" />
    </g>
    <g
       style="fill:#000000;fill-opacity:0;stroke:#000000;stroke-width:150000;stroke-linecap:round;stroke-linejoin:round;stroke-opacity:1"
       id="g4524"
       transform="matrix(9.9999996e-7,0,0,9.9999996e-7,-64.159379,27.494767)" />
    <g
       style="fill:#000000;fill-opacity:0;stroke:#000000;stroke-width:150000;stroke-linecap:round;stroke-linejoin:round;stroke-opacity:1"
       id="g4526"
       transform="matrix(9.9999996e-7,0,0,9.9999996e-7,-64.159379,27.494767)" />
    <g
       style="fill:#000000;fill-opacity:0;stroke:#000000;stroke-width:150000;stroke-linecap:round;stroke-linejoin:round;stroke-opacity:1"
       id="g4528"
       transform="matrix(9.9999996e-7,0,0,9.9999996e-7,-64.159379,27.494767)" />
    <g
       style="fill:#000000;fill-opacity:0;stroke:#000000;stroke-width:150000;stroke-linecap:round;stroke-linejoin:round;stroke-opacity:1"
       id="g4530"
       transform="matrix(9.9999996e-7,0,0,9.9999996e-7,-64.159379,27.494767)" />
    <g
       style="fill:#000000;fill-opacity:0;stroke:#000000;stroke-width:150000;stroke-linecap:round;stroke-linejoin:round;stroke-opacity:1"
       id="g4532"
       transform="matrix(9.9999996e-7,0,0,9.9999996e-7,-64.159379,27.494767)" />
    <g
       style="fill:#000000;fill-opacity:0;stroke:#000000;stroke-width:150000;stroke-linecap:round;stroke-linejoin:round;stroke-opacity:1"
       id="g4534"
       transform="matrix(9.9999996e-7,0,0,9.9999996e-7,-64.159379,27.494767)" />
    <g
       style="fill:#000000;fill-opacity:0;stroke:#000000;stroke-width:150000;stroke-linecap:round;stroke-linejoin:round;stroke-opacity:1"
       id="g4536"
       transform="matrix(9.9999996e-7,0,0,9.9999996e-7,-64.159379,27.494767)" />
    <g
       style="fill:#000000;fill-opacity:0;stroke:#000000;stroke-width:150000;stroke-linecap:round;stroke-linejoin:round;stroke-opacity:1"
       id="g4538"
       transform="matrix(9.9999996e-7,0,0,9.9999996e-7,-64.159379,27.494767)" />
    <g
       style="fill:#000000;fill-opacity:0;stroke:#000000;stroke-width:150000;stroke-linecap:round;stroke-linejoin:round;stroke-opacity:1"
       id="g4540"
       transform="matrix(9.9999996e-7,0,0,9.9999996e-7,-64.159379,27.494767)" />
    <g
       style="fill:#000000;fill-opacity:0;stroke:#000000;stroke-width:150000;stroke-linecap:round;stroke-linejoin:round;stroke-opacity:1"
       id="g4542"
       transform="matrix(9.9999996e-7,0,0,9.9999996e-7,-64.159379,27.494767)" />
    <g
       style="fill:#000000;fill-opacity:0;stroke:#000000;stroke-width:150000;stroke-linecap:round;stroke-linejoin:round;stroke-opacity:1"
       id="g4544"
       transform="matrix(9.9999996e-7,0,0,9.9999996e-7,-64.159379,27.494767)" />
    <g
       style="fill:#000000;fill-opacity:0;stroke:#000000;stroke-width:150000;stroke-linecap:round;stroke-linejoin:round;stroke-opacity:1"
       id="g4546"
       transform="matrix(9.9999996e-7,0,0,9.9999996e-7,-64.159379,27.494767)" />
    <g
       style="fill:#000000;fill-opacity:0;stroke:#000000;stroke-width:150000;stroke-linecap:round;stroke-linejoin:round;stroke-opacity:1"
       id="g4548"
       transform="matrix(9.9999996e-7,0,0,9.9999996e-7,-64.159379,27.494767)" />
    <g
       style="fill:#000000;fill-opacity:0;stroke:#000000;stroke-width:150000;stroke-linecap:round;stroke-linejoin:round;stroke-opacity:1"
       id="g4550"
       transform="matrix(9.9999996e-7,0,0,9.9999996e-7,-64.159379,27.494767)" />
    <g
       style="fill:#000000;fill-opacity:0;stroke:#000000;stroke-width:150000;stroke-linecap:round;stroke-linejoin:round;stroke-opacity:1"
       id="g4552"
       transform="matrix(9.9999996e-7,0,0,9.9999996e-7,-64.159379,27.494767)" />
    <g
       style="fill:#000000;fill-opacity:0;stroke:#000000;stroke-width:150000;stroke-linecap:round;stroke-linejoin:round;stroke-opacity:1"
       id="g4554"
       transform="matrix(9.9999996e-7,0,0,9.9999996e-7,-64.159379,27.494767)" />
    <g
       style="fill:#000000;fill-opacity:0;stroke:#000000;stroke-width:150000;stroke-linecap:round;stroke-linejoin:round;stroke-opacity:1"
       id="g4556"
       transform="matrix(9.9999996e-7,0,0,9.9999996e-7,-64.159379,27.494767)" />
    <g
       style="fill:#000000;fill-opacity:0;stroke:#000000;stroke-width:150000;stroke-linecap:round;stroke-linejoin:round;stroke-opacity:1"
       id="g4558"
       transform="matrix(9.9999996e-7,0,0,9.9999996e-7,-64.159379,27.494767)" />
    <g
       style="fill:#000000;fill-opacity:0;stroke:#000000;stroke-width:150000;stroke-linecap:round;stroke-linejoin:round;stroke-opacity:1"
       id="g4560"
       transform="matrix(9.9999996e-7,0,0,9.9999996e-7,-64.159379,27.494767)" />
    <g
       style="fill:#000000;fill-opacity:0;stroke:#000000;stroke-width:150000;stroke-linecap:round;stroke-linejoin:round;stroke-opacity:1"
       id="g4562"
       transform="matrix(9.9999996e-7,0,0,9.9999996e-7,-64.159379,27.494767)" />
    <g
       style="fill:#000000;fill-opacity:0;stroke:#000000;stroke-width:150000;stroke-linecap:round;stroke-linejoin:round;stroke-opacity:1"
       id="g4564"
       transform="matrix(9.9999996e-7,0,0,9.9999996e-7,-64.159379,27.494767)" />
    <rect
       style="opacity:1;fill:#f4eed7;fill-opacity:1;stroke:#c4c8b7;stroke-width:0.39500001;stroke-linejoin:round;stroke-miterlimit:4;stroke-dasharray:none;stroke-dashoffset:0;stroke-opacity:1"
       id="rect6295"
       width="5.605"
       height="5.605"
       x="60.346836"
       y="120.36243" />
    <circle
       style="opacity:1;fill:#484537;fill-opacity:1;stroke:#24221c;stroke-width:0.39499998;stroke-linejoin:round;stroke-miterlimit:4;stroke-dasharray:none;stroke-dashoffset:0;stroke-opacity:1"
       id="path6297"
       cx="63.223495"
       cy="123.13991"
       r="1.2360437" />
    <circle
       style="opacity:1;fill:#ccff00;fill-opacity:1;stroke:#ccff00;stroke-width:0.39499998;stroke-linejoin:round;stroke-miterlimit:4;stroke-dasharray:none;stroke-dashoffset:0;stroke-opacity:1"
       id="path6299"
       cx="63.357208"
       cy="130.45309"
       r="1.3955331" />
    <path
       style="opacity:1;fill:#f6ffd5;fill-opacity:1;stroke:#ccff00;stroke-width:0.39500001;stroke-linejoin:round;stroke-miterlimit:4;stroke-dasharray:none;stroke-dashoffset:0;stroke-opacity:1"
       id="path6348"
       transform="rotate(-31.806294)"
       sodipodi:type="arc"
       sodipodi:cx="-15.03361"
       sodipodi:cy="143.41898"
       sodipodi:rx="0.89003223"
       sodipodi:ry="0.47431374"
       sodipodi:start="0"
       sodipodi:end="6.2533659"
       sodipodi:open="true"
       d="m -14.143578,143.41898 a 0.89003223,0.47431374 0 0 1 -0.883397,0.4743 0.89003223,0.47431374 0 0 1 -0.896569,-0.46723 0.89003223,0.47431374 0 0 1 0.87003,-0.48127 0.89003223,0.47431374 0 0 1 0.90954,0.46005" />
    <g
       id="g6374"
       transform="translate(-0.45110445,2.5938506)">
      <g
         id="g6364">
        <g
           id="g6356">
          <path
             transform="rotate(-179.911)"
             d="m -79.021074,-100.06335 a 2.5518324,2.5917046 0 0 1 -2.55076,2.591708 2.5518324,2.5917046 0 0 1 -2.552904,-2.589528 l 2.551832,-0.002 z"
             sodipodi:end="3.1407521"
             sodipodi:start="0"
             sodipodi:ry="2.5917046"
             sodipodi:rx="2.5518324"
             sodipodi:cy="-100.06335"
             sodipodi:cx="-81.572906"
             sodipodi:type="arc"
             id="path6350"
             style="opacity:1;fill:#cccccc;fill-opacity:1;stroke:#cccccc;stroke-width:0.39499998;stroke-linejoin:round;stroke-miterlimit:4;stroke-dasharray:none;stroke-dashoffset:0;stroke-opacity:1" />
          <rect
             y="100.26207"
             x="78.858688"
             height="3.9189699"
             width="5.1031194"
             id="rect6352"
             style="opacity:1;fill:#cccccc;fill-opacity:1;stroke:#cccccc;stroke-width:0.39499998;stroke-linejoin:round;stroke-miterlimit:4;stroke-dasharray:none;stroke-dashoffset:0;stroke-opacity:1" />
        </g>
        <rect
           style="opacity:1;fill:#cccccc;fill-opacity:1;stroke:#cccccc;stroke-width:0.39499998;stroke-linejoin:round;stroke-miterlimit:4;stroke-dasharray:none;stroke-dashoffset:0;stroke-opacity:1"
           id="rect6358"
           width="6.5390697"
           height="0.87719232"
           x="78.209671"
           y="104.31673" />
      </g>
      <path
         transform="rotate(26.008318)"
         d="m 115.13567,54.437056 a 0.71188998,1.4590411 0 0 1 0.71446,-1.432323 0.71188998,1.4590411 0 0 1 0.70916,1.443348 0.71188998,1.4590411 0 0 1 -0.69385,1.474258 0.71188998,1.4590411 0 0 1 -0.72932,-1.400513 l 0.71132,-0.05806 z"
         sodipodi:end="3.1017879"
         sodipodi:start="3.1598987"
         sodipodi:ry="1.4590411"
         sodipodi:rx="0.71188998"
         sodipodi:cy="54.463764"
         sodipodi:cx="115.84744"
         sodipodi:type="arc"
         id="path6366"
         style="opacity:1;fill:#ececec;fill-opacity:1;stroke:#ececec;stroke-width:0.39499998;stroke-linejoin:round;stroke-miterlimit:4;stroke-dasharray:none;stroke-dashoffset:0;stroke-opacity:1" />
    </g>
    <rect
       style="opacity:1;fill:#333333;fill-opacity:1;stroke:#1a1a1a;stroke-width:0.39499998;stroke-linejoin:round;stroke-miterlimit:4;stroke-dasharray:none;stroke-dashoffset:0;stroke-opacity:1"
       id="rect6376"
       width="7.1048951"
       height="3.3832834"
       x="62.252415"
       y="105.7317" />
    <path
       style="opacity:1;fill:#333333;fill-opacity:1;stroke:#1a1a1a;stroke-width:0.39499998;stroke-linejoin:round;stroke-miterlimit:4;stroke-dasharray:none;stroke-dashoffset:0;stroke-opacity:1"
       id="path6378"
       sodipodi:type="arc"
       sodipodi:cx="65.880852"
       sodipodi:cy="105.9615"
       sodipodi:rx="2.1531084"
       sodipodi:ry="2.2527893"
       sodipodi:start="3.1495877"
       sodipodi:end="6.2777352"
       d="m 63.727812,105.94349 a 2.1531084,2.2527893 0 0 1 2.15578,-2.23478 2.1531084,2.2527893 0 0 1 2.150336,2.24051"
       sodipodi:open="true" />
    <circle
       style="opacity:1;fill:#ffffff;fill-opacity:1;stroke:#ffffff;stroke-width:0.39499998;stroke-linejoin:round;stroke-miterlimit:4;stroke-dasharray:none;stroke-dashoffset:0;stroke-opacity:1"
       id="path6384"
       cx="73.513504"
       cy="107.30031"
       r="2.1991341" />
    <circle
       style="opacity:1;fill:#ffffff;fill-opacity:1;stroke:#ffffff;stroke-width:0.39499998;stroke-linejoin:round;stroke-miterlimit:4;stroke-dasharray:none;stroke-dashoffset:0;stroke-opacity:1"
       id="path6384-6"
       cx="62.957268"
       cy="137.02707"
       r="2.1991341" />
  </g>
</svg>
